# xmcd CD database file
#
# Track frame offsets:
#	150
#	12140
#	26390
#	42240
#	53505
#	61980
#	72180
#	81750
#	90785
#	99660
#	109585
#	116455
#	124445
#	132160
#
# Disc length: 1938 seconds
#
# Revision: 0
# Processed by: cddbd v1.5.1PL0 Copyright (c) Steve Scherf et al.
# Submitted via: CDex 1.51
#
DISCID=a707900e
DTITLE=Frank Sinatra - Exclusive Collection
DYEAR=1900
DGENRE=Jazz
TTITLE0=You Do Something To Me
TTITLE1=Begin The Beguine
TTITLE2=Ol' Man River
TTITLE3=Night And Day
TTITLE4=On The Sunny Side Of The Street
TTITLE5=I Wonder Who's Kissing Her Now
TTITLE6=I'm In The Mood For Love 
TTITLE7=Don't Blame Me
TTITLE8=Tenderly
TTITLE9=Love Me Or Leave Me
TTITLE10=Somebody Love Me
TTITLE11=I'll String Along With You
TTITLE12='S Wonderful
TTITLE13=You Make Feel So Young
EXTD=
EXTT0=
EXTT1=
EXTT2=
EXTT3=
EXTT4=
EXTT5=
EXTT6=
EXTT7=
EXTT8=
EXTT9=
EXTT10=
EXTT11=
EXTT12=
EXTT13=
PLAYORDER=
